<svg width="36" height="36" viewBox="0 0 36 36" fill="none" xmlns="http://www.w3.org/2000/svg">
<mask id="mask0_3484_10708" style="mask-type:alpha" maskUnits="userSpaceOnUse" x="0" y="0" width="36" height="36">
<rect width="36" height="36" rx="18" fill="#EDF1F3"/>
</mask>
<g mask="url(#mask0_3484_10708)">
<rect width="36" height="36" rx="18" fill="#E3E6ED"/>
<rect x="15.3716" y="20.519" width="5.25684" height="7.88525" fill="#F1CDCA"/>
<path fill-rule="evenodd" clip-rule="evenodd" d="M23.659 17.1411C22.8511 20.3841 20.6568 22.7095 18.0767 22.7095C15.4965 22.7095 13.3023 20.384 12.4944 17.141C12.1327 16.8592 11.7265 16.3643 11.5057 15.4812C11.2416 14.4247 11.7073 14.0068 12.1716 13.9276C12.3407 9.54405 14.9198 6.06287 18.0767 6.06287C21.2335 6.06287 23.8127 9.54404 23.9818 13.9276C24.4461 14.0068 24.912 14.4246 24.6478 15.4812C24.427 16.3645 24.0207 16.8593 23.659 17.1411Z" fill="#F9DBDA"/>
<path d="M11.8672 11.7579C11.8672 8.3707 14.613 5.62488 18.0002 5.62488C21.3873 5.62488 24.1331 8.3707 24.1331 11.7579V14.8243C24.1331 15.1872 23.8389 15.4814 23.476 15.4814C23.1131 15.4814 22.8189 15.1872 22.8189 14.8243V14.1785C22.8189 12.1158 21.1468 10.4436 19.0841 10.4436H16.9162C14.8535 10.4436 13.1814 12.1158 13.1814 14.1785V14.8243C13.1814 15.1872 12.8872 15.4814 12.5243 15.4814C12.1614 15.4814 11.8672 15.1872 11.8672 14.8243L11.8672 11.7579Z" fill="#1B1636"/>
<path d="M6.99084 28.7746C8.4336 27.3944 10.3532 26.6241 12.3498 26.6241H23.6507C25.6473 26.6241 27.5669 27.3944 29.0097 28.7746L40.5002 39.7662H-4.49976L6.99084 28.7746Z" fill="#3C79E9"/>
</g>
</svg>
